<?xml version="1.0" encoding="utf-8"?>
<!-- Generator: Adobe Illustrator 26.0.1, SVG Export Plug-In . SVG Version: 6.00 Build 0)  -->
<svg version="1.1" id="Ebene_1" xmlns="http://www.w3.org/2000/svg" xmlns:xlink="http://www.w3.org/1999/xlink" x="0px" y="0px"
	 viewBox="0 0 50 50" style="enable-background:new 0 0 50 50;" xml:space="preserve">
<style type="text/css">
	.st0{fill:#CFA075;}
</style>
<g>
	<path class="st0" d="M188.3,56.8h5.7v5.9c-0.8,0.8-1.8,1.3-2.9,1.6c-1.1,0.3-2.3,0.5-3.5,0.5c-1.2,0-2.4-0.2-3.5-0.7
		c-1.1-0.4-2.1-1-2.9-1.8c-0.8-0.7-1.5-1.6-1.9-2.6c-0.5-1-0.7-2.1-0.7-3.2c0-1.1,0.2-2.2,0.7-3.2c0.5-1,1.1-1.9,1.9-2.7
		c0.8-0.8,1.8-1.4,2.9-1.8c1.1-0.5,2.3-0.7,3.5-0.7c1.3,0,2.4,0.2,3.5,0.7c1.1,0.5,2.1,1.1,2.9,1.9l-1.2,1c-0.7-0.6-1.4-1.1-2.3-1.5
		c-0.9-0.4-1.9-0.6-2.9-0.6c-1,0-1.9,0.2-2.8,0.5c-0.9,0.4-1.7,0.8-2.3,1.5c-0.7,0.6-1.2,1.3-1.6,2.2c-0.4,0.8-0.6,1.7-0.6,2.7
		c0,0.9,0.2,1.8,0.6,2.7c0.4,0.8,0.9,1.6,1.6,2.2c0.7,0.6,1.4,1.1,2.3,1.5c0.9,0.4,1.8,0.5,2.8,0.5c0.8,0,1.6-0.1,2.1-0.2
		c0.6-0.1,1.1-0.3,1.4-0.4c0.4-0.2,0.8-0.4,1.1-0.6v-3.8H188L188.3,56.8z"/>
	<path class="st0" d="M222.7,53.5c0,1.1-0.3,2.1-1,2.9c-0.7,0.8-1.5,1.4-2.6,1.8l3.7,6.3l-1.8,0.4l-3.7-6.3h-5.5v6.1H210V48.6
		l2.7-0.2h3.8c0.9,0,1.8,0.1,2.6,0.4c0.8,0.3,1.4,0.6,1.9,1.1c0.5,0.5,0.9,1,1.2,1.6C222.6,52.1,222.7,52.8,222.7,53.5 M211.8,57.1
		h4.2c0.6,0,1.2,0,1.8-0.1c0.6-0.1,1.1-0.3,1.6-0.5c0.4-0.3,0.8-0.6,1.1-1.1c0.3-0.5,0.4-1.1,0.4-1.8c0-0.7-0.1-1.3-0.4-1.8
		c-0.3-0.5-0.6-0.8-1.1-1.1c-0.4-0.3-1-0.5-1.6-0.6c-0.6-0.1-1.2-0.2-1.8-0.2h-4.2V57.1z"/>
	<path class="st0" d="M237.1,56.5c0-1.1,0.2-2.2,0.7-3.2c0.5-1,1.1-1.9,1.9-2.6c0.8-0.7,1.8-1.3,2.9-1.8c1.1-0.4,2.3-0.7,3.5-0.7
		c1.2,0,2.4,0.2,3.5,0.7c1.1,0.4,2.1,1,2.9,1.8c0.8,0.7,1.5,1.6,1.9,2.6c0.5,1,0.7,2.1,0.7,3.2c0,1.1-0.2,2.2-0.7,3.2
		c-0.5,1-1.1,1.9-1.9,2.6c-0.8,0.7-1.8,1.3-2.9,1.8c-1.1,0.4-2.3,0.7-3.5,0.7c-1.2,0-2.4-0.2-3.5-0.7c-1.1-0.4-2.1-1-2.9-1.8
		c-0.8-0.7-1.5-1.6-1.9-2.6C237.3,58.7,237.1,57.7,237.1,56.5 M238.9,56.5c0,0.9,0.2,1.8,0.6,2.6c0.4,0.8,0.9,1.5,1.6,2.2
		c0.7,0.6,1.4,1.1,2.3,1.5c0.9,0.4,1.8,0.5,2.8,0.5c1,0,1.9-0.2,2.8-0.5c0.9-0.4,1.7-0.9,2.3-1.5c0.7-0.6,1.2-1.3,1.6-2.2
		c0.4-0.8,0.6-1.7,0.6-2.6c0-0.9-0.2-1.8-0.6-2.6c-0.4-0.8-0.9-1.5-1.6-2.2c-0.7-0.6-1.4-1.1-2.3-1.5c-0.9-0.4-1.8-0.5-2.8-0.5
		c-1,0-1.9,0.2-2.8,0.5c-0.9,0.4-1.7,0.8-2.3,1.5c-0.7,0.6-1.2,1.3-1.6,2.2C239.1,54.7,238.9,55.6,238.9,56.5"/>
	<path class="st0" d="M283.4,57.9c0,1-0.1,1.9-0.4,2.7c-0.2,0.8-0.6,1.6-1.2,2.2c-0.5,0.6-1.2,1.1-2,1.5c-0.8,0.4-1.8,0.5-3,0.5
		c-1.2,0-2.3-0.2-3.2-0.5c-0.9-0.3-1.6-0.8-2.1-1.5c-0.5-0.6-0.9-1.4-1.2-2.2c-0.2-0.8-0.4-1.7-0.4-2.7v-9.5l1.8-0.2v8.9
		c0,0.4,0,0.9,0,1.3c0,0.5,0.1,0.9,0.2,1.4c0.1,0.5,0.2,0.9,0.4,1.3c0.2,0.4,0.5,0.8,0.9,1.1c0.4,0.3,0.8,0.6,1.4,0.8
		c0.6,0.2,1.3,0.3,2.1,0.3c0.8,0,1.4-0.1,2-0.3c0.6-0.2,1-0.4,1.4-0.8c0.4-0.3,0.6-0.7,0.9-1.1c0.2-0.4,0.4-0.9,0.5-1.3
		c0.1-0.5,0.2-0.9,0.2-1.4c0-0.5,0-0.9,0-1.4v-8.6h1.6V57.9z"/>
	<path class="st0" d="M302.1,48.4h2.2c1.1,0,2.1,0.1,3,0.4c0.9,0.3,1.6,0.7,2.1,1.2c0.6,0.5,1,1.1,1.3,1.7c0.3,0.6,0.4,1.3,0.4,2.1
		c0,0.7-0.1,1.4-0.4,2c-0.3,0.6-0.7,1.2-1.2,1.6c-0.6,0.5-1.2,0.8-2.1,1.1c-0.8,0.3-1.8,0.4-2.8,0.4h-3.4v5.8h-1.7V48.6L302.1,48.4z
		 M301.2,49.9v7.6h3.2c0.7,0,1.4-0.1,2-0.2c0.6-0.1,1.1-0.4,1.6-0.7s0.8-0.7,1-1.2c0.2-0.5,0.4-1.1,0.4-1.7c0-1.3-0.4-2.3-1.3-2.9
		c-0.9-0.6-2.1-0.9-3.7-0.9H301.2z"/>
	<rect x="78.7" y="33.7" class="st0" width="325.9" height="1.1"/>
	<path class="st0" d="M102.9,18.9c1.8-0.2,3.7-0.7,5.7-1.4c2-0.7,3.8-1.8,5.3-3.3c1.5-1.4,2.7-3.2,3.6-5.4c0.9-2.2,1.3-4.6,1.3-7.2
		c0-3.6-0.8-6.9-2.4-9.6c-1.6-2.8-4-5-7.3-6.6c-3.3-1.6-7.9-2.4-13.8-2.4c-1.9,0-5.6,0.1-11.1,0.4l-6.3,0.3v0.7h0.9
		c2.1,0,3.4,0.2,4.1,0.5c0.7,0.4,1.1,1,1.3,1.9c0.2,0.9,0.3,2.7,0.3,5.7V10c0,3.1-0.1,5-0.3,5.9c-0.2,0.9-0.7,1.6-1.4,2
		c-0.7,0.4-1.9,0.6-3.7,0.6h-1.3v0.6h17.4C98.5,19.2,101.1,19.1,102.9,18.9 M89.8,15.5c-0.2-1.1-0.2-3.3-0.2-7v-24.6l0.3,0
		c1.5-0.1,3.1-0.1,4.6-0.1c3.1,0,5.7,0.3,7.7,0.8c2,0.6,3.9,1.6,5.6,3.2c1.7,1.5,3,3.6,3.8,6c0.9,2.4,1.3,5.2,1.3,8.3
		c0,4-0.8,7.3-2.3,9.9c-1.5,2.6-3.5,4.4-5.8,5.3c-2.3,0.9-5.2,1.3-8.7,1.3c-2.5,0-4.1-0.2-4.9-0.7C90.5,17.4,90,16.6,89.8,15.5"/>
	<path class="st0" d="M135.4,11.1c-1.3,2.9-2.3,4.8-3.2,5.7c-0.9,0.9-2.2,1.5-3.9,1.8v0.7h11.2v-0.6c-1.2,0-2.2-0.3-3-0.9
		c-0.9-0.6-1.4-1.5-1.4-2.7c0-1.1,0.8-3.2,2.3-6.7l1.1-2.5h15.7l3.2,6.9c1.2,2.7,1.4,3.4,1.4,3.6c0,1.1-0.7,1.6-1.2,1.8
		c-0.7,0.3-1.9,0.4-3.7,0.4v0.6H169v-0.7c-1.3-0.1-2.3-0.5-3-1c-0.7-0.5-1.3-1.2-1.8-2.1l-1.8-3.8L149-17.1h-0.7L136.8,8
		C135.9,9.8,135.5,10.8,135.4,11.1 M146.4-11.4L154,5.2h-15.1L146.4-11.4z"/>
	<path class="st0" d="M230.5-11.2c0.7-1.5,1.6-2.7,2.5-3.5c0.9-0.7,2-1.2,3.2-1.3v-0.7h-11.6v0.6c3.2,0.1,4.8,1.3,4.8,3.5
		c0,1.1-0.8,3.3-2.4,6.7L217.5,15L205.7-9.8c-1.3-2.6-1.4-3.4-1.4-3.8c0-0.9,0.5-1.6,1.3-1.9c0.7-0.3,2.1-0.4,4.1-0.5v-0.6h-16.6
		v0.6c1.8,0.1,3.1,0.4,4,1c0.9,0.6,1.7,1.8,2.5,3.6c0.5,1.2,0.9,2.1,1.2,2.7l13.7,28.8h1.4l11.8-25.5L230.5-11.2z"/>
	<path class="st0" d="M265.9-16v-0.6h-17.7v0.6h0.5c2.1,0,3.5,0.2,4.1,0.5c0.7,0.4,1.1,1,1.3,1.9c0.2,0.9,0.3,2.7,0.3,5.7V10
		c0,3.1-0.1,5-0.3,5.9c-0.2,0.9-0.7,1.6-1.4,2c-0.7,0.4-1.9,0.6-3.7,0.6h-0.9v0.6h17.7v-0.6h-0.9c-1.9,0-3.2-0.2-3.9-0.7
		c-0.7-0.5-1.1-1.2-1.3-2.2c-0.2-0.9-0.2-2.8-0.2-5.7V-7.8c0-3.1,0.1-5,0.3-5.8c0.2-0.9,0.7-1.5,1.4-1.8c0.7-0.3,2-0.5,4-0.5H265.9z
		"/>
	<path class="st0" d="M319-15c0.9-0.5,2.2-0.8,3.8-0.9v-0.7H309v0.6c1.5,0,2.8,0.2,3.8,0.6c1.2,0.4,2,1,2.4,1.7
		c0.4,0.7,0.6,1.8,0.6,3.5v22.7l-24.2-29.1h-11.3v0.6c2,0,3.3,0.2,4,0.4c0.7,0.3,1.2,1,1.5,2c0.3,1,0.4,2.8,0.4,5.7v19.3
		c0,2.2-0.1,3.6-0.3,4.3c-0.2,0.7-0.9,1.3-1.9,1.8c-1,0.5-2.4,0.8-4.2,1v0.7H294v-0.6c-2,0-3.6-0.3-4.6-0.9c-1.1-0.6-1.8-1.3-2.1-2
		c-0.2-0.7-0.4-2.1-0.4-4.2v-26.2L315.8,20h0.8V-9.8c0-1.6,0.1-2.7,0.4-3.4C317.3-13.9,318-14.5,319-15"/>
	<path class="st0" d="M368.9-11.6l-0.3-0.4c-1.2-1.3-3-2.5-5.3-3.6c-2.4-1.1-5.1-1.6-8-1.6c-3.5,0-6.9,0.8-9.8,2.3
		c-3,1.5-5.3,3.8-7,6.9c-1.7,3.1-2.5,6.5-2.5,10c0,5.4,1.8,9.7,5.4,13c3.6,3.3,8.3,4.9,14,4.9c5.4,0,9.8-1.8,13.3-5.3l0.3-0.3
		l0.2,0.3c0.9,1.1,1.5,2.3,1.9,3.7h0.7V6.1h-0.6c-0.3,2.1-1.1,4.2-2.3,6.4c-1.3,2.3-3.2,4-5.5,5c-2.3,1-4.5,1.4-6.7,1.4
		c-4.1,0-7.6-1.5-10.3-4.5c-2.7-3-4.1-7.2-4.1-12.7c0-5.8,1.3-10.3,3.8-13.5c2.5-3.2,6-4.8,10.3-4.8c3.5,0,6.7,1,9.4,2.9
		c2.7,1.9,4.6,5.3,5.5,10.2h0.7l-0.3-13.2h-0.7c-0.2,1.6-0.7,3.1-1.5,4.6L368.9-11.6z"/>
	<path class="st0" d="M405.2-16v-0.6h-17.7v0.6h0.5c2.1,0,3.5,0.2,4.1,0.5c0.7,0.4,1.1,1,1.3,1.9c0.2,0.9,0.3,2.7,0.3,5.7V10
		c0,3.1-0.1,5-0.3,5.9c-0.2,0.9-0.7,1.6-1.4,2c-0.7,0.4-1.9,0.6-3.7,0.6h-0.9v0.6h17.7v-0.6h-0.9c-1.9,0-3.2-0.2-3.9-0.7
		c-0.7-0.5-1.1-1.2-1.3-2.2c-0.2-0.9-0.2-2.8-0.2-5.7V-7.8c0-3.1,0.1-5,0.3-5.8c0.2-0.9,0.7-1.5,1.4-1.8c0.7-0.3,2-0.5,4-0.5H405.2z
		"/>
</g>
<path class="st0" d="M40.3,15.5c0-0.7-0.1-1.4-0.3-2c-0.3-1.4-0.8-2.7-1.5-3.9c-0.8-1.2-1.8-2.3-2.9-3.1c-0.6-0.4-1.2-0.7-1.8-1
	c-0.7-0.3-1.3-0.5-2-0.6c-0.7-0.1-1.5-0.2-2.2,0c-0.7,0.2-1.4,0.5-2,0.9c-0.6,0.4-1.2,0.8-1.7,1.4c-0.5,0.5-0.9,1.1-1.2,1.8
	c-0.7,1.3-1,2.6-1.2,3.9c-0.1,0.7-0.1,1.3-0.1,1.9l-0.1,1.8c-0.1,4.4-0.3,8.8-0.3,13.2c-1.8-0.4-3.5-1.2-4.8-2.4
	c-0.8-0.7-1.5-1.6-2-2.5c-0.5-0.9-0.9-1.9-1.2-2.9c-0.3-1-0.4-2-0.4-3c0-1-0.2-1.9-0.1-2.9c0.1-1,0.3-2,0.7-2.9
	c0.4-1,0.9-1.9,1.6-2.8c1.3-1.8,3.1-3.3,5.1-4.7l-0.6-1.2c-1.2,0.4-2.3,0.9-3.5,1.6c-1.1,0.6-2.2,1.4-3.2,2.2
	c-1,0.9-1.9,1.9-2.7,3.1c-0.8,1.2-1.4,2.5-1.8,3.9c-0.1,0.4-0.2,0.7-0.3,1.1c-0.1,0.4-0.1,0.7-0.2,1.1c0,0.4,0,0.7-0.1,1.1
	c0,0.4,0.1,0.7,0.1,1.1c0,0.4,0.2,0.7,0.2,1c0.1,0.3,0.2,0.7,0.3,1c0.1,0.3,0.2,0.7,0.4,1c0.1,0.3,0.3,0.6,0.4,1
	c0.6,1.3,1.4,2.4,2.4,3.4c0.9,1,2,1.9,3.2,2.6c1.2,0.7,2.4,1.2,3.7,1.6c0.9,0.3,1.8,0.4,2.8,0.5l0,3.1l0.1,3.6l0.1,3.6
	c0,1.2,0.1,2.4,1.3,3.6h1.4c1.2-1.2,1.3-2.4,1.3-3.6l0.1-3.6l0.1-3.6l0-3.1c0.2,0,0.4-0.1,0.6-0.1c1.3-0.2,2.6-0.6,3.7-1.1l0.5-0.2
	l0.4-0.2c0.3-0.2,0.6-0.3,0.9-0.5c0.5-0.4,1.1-0.7,1.6-1.2c0.5-0.4,1-0.9,1.5-1.4c0.2-0.3,0.4-0.5,0.6-0.8l0.3-0.4
	c0.1-0.1,0.2-0.3,0.3-0.4l0.5-0.9l0.5-0.9l0.2-0.5l0.2-0.5l0.4-1c0.4-1.3,0.7-2.6,0.7-4l0-1L40.3,15.5z M36.2,17.4
	c0,1.1-0.2,2.1-0.3,3.2l-0.2,0.8l-0.1,0.4l-0.1,0.4l-0.2,0.8l-0.3,0.7c-0.1,0.1-0.1,0.3-0.2,0.4l-0.2,0.4c-0.1,0.2-0.2,0.5-0.4,0.7
	c-0.3,0.4-0.6,0.9-0.9,1.3c-0.3,0.4-0.7,0.8-1.1,1.2c-0.2,0.2-0.4,0.3-0.7,0.5l-0.3,0.3l-0.4,0.2c-0.9,0.6-2,1-3.1,1.2l-0.3,0.1
	c0-4.4-0.2-8.9-0.3-13.3L27,12.9c0-1.1-0.1-2.2,0.1-3.2c0.1-1,0.6-2,1.4-2.6c0.4-0.3,0.9-0.4,1.4-0.4c0.5,0,0.9,0.1,1.4,0.2
	c1,0.3,1.8,1,2.5,1.7c0.7,0.7,1.2,1.6,1.6,2.5c0.4,0.9,0.6,1.9,0.8,2.9c0,0.5,0.1,1,0.1,1.6l0,0.8L36.2,17.4z"/>
</svg>
